<?xml version="1.0" encoding="UTF-8"?>
<svg id="Layer_1" data-name="Layer 1" xmlns="http://www.w3.org/2000/svg" viewBox="0 0 1000 1000">
  <defs>
    <style>
      .cls-1 {
        fill: #fff;
        stroke-width: 0px;
      }
    </style>
  </defs>
  <g>
    <path class="cls-1" d="M343.4,702.86c-.06-.12-.15-.27-.24-.39h-67.51c3.46,2.26,7.56,4.1,12.17,5.54,4.67,1.45,9.55,2.71,14.7,3.83,4.85.99,8.19,1.93,9.97,2.83,1.78.9,2.65,2.05,2.65,3.4v.27c0,1.27-.6,2.29-1.81,3.01-1.24.72-3.22,1.08-6,1.08-5.39,0-10.85-.87-16.3-2.59-5.48-1.72-10.69-4.58-15.67-8.56l-16.3,20.25c5.81,5.36,12.74,9.37,20.79,12.05,8.04,2.65,16.72,4.01,26.03,4.01,6.09,0,11.63-.75,16.63-2.26,5-1.48,9.25-3.62,12.71-6.39,3.49-2.77,6.18-6.15,8.1-10.12,1.9-3.98,2.86-8.47,2.86-13.47v-.27c0-4.82-.93-8.89-2.8-12.23ZM307.18,684.36c-2.41-.45-4.43-.9-6-1.36-1.57-.45-2.8-.93-3.71-1.45-.9-.48-1.54-1.02-1.9-1.57-.33-.54-.51-1.11-.51-1.75v-.3c0-1.17.54-2.11,1.63-2.83,1.08-.72,2.74-1.08,5.03-1.08,4.25,0,8.8.72,13.62,2.23,4.82,1.51,9.4,3.89,13.77,7.14l14.85-21.48c-5.3-4.37-11.27-7.62-17.93-9.79-6.66-2.17-14.4-3.28-23.29-3.28-6.27,0-11.81.84-16.63,2.47-4.82,1.63-8.86,3.89-12.11,6.78-3.28,2.92-5.75,6.33-7.44,10.21-1.69,3.89-2.56,8.1-2.56,12.65v.27c0,4.82.96,8.89,2.86,12.2h67.39c-3.19-2.05-6.93-3.77-11.15-5.12-4.79-1.57-10.09-2.86-15.94-3.95Z"/>
    <path class="cls-1" d="M349.72,650.62v26.93h26.84v15.88h30.55v-15.88h26.84v-26.93h-84.23ZM376.57,702.47v43.35h30.55v-43.35h-30.55Z"/>
    <path class="cls-1" d="M534.67,678.58c-2.53-6.03-6.03-11.27-10.51-15.73-4.49-4.43-9.73-7.92-15.79-10.45-6.03-2.53-12.59-3.83-19.61-3.83s-13.62,1.3-19.7,3.89c-6.09,2.59-11.36,6.12-15.85,10.6-4.49,4.49-8.01,9.76-10.57,15.79-1.96,4.61-3.16,9.49-3.62,14.58h30.97c.21-1.21.51-2.35.9-3.49.84-2.53,2.11-4.79,3.77-6.75,1.66-1.93,3.65-3.49,6-4.67,2.35-1.2,4.97-1.78,7.83-1.78s5.6.57,7.95,1.78c2.35,1.17,4.34,2.74,6,4.76,1.66,1.99,2.95,4.28,3.86,6.87.39,1.05.66,2.17.87,3.28h31.06c-.42-5.21-1.6-10.15-3.55-14.85ZM507.32,702.47c-.18,1.39-.51,2.74-.96,4.07-.87,2.53-2.14,4.76-3.77,6.72-1.66,1.96-3.68,3.52-6.03,4.7-2.32,1.17-4.94,1.75-7.8,1.75s-5.6-.57-7.95-1.75c-2.35-1.17-4.37-2.77-6.03-4.76-1.63-1.99-2.92-4.28-3.83-6.87-.45-1.27-.78-2.53-1.02-3.86h-30.97c.39,5.42,1.57,10.54,3.62,15.39,2.53,6.06,6.03,11.27,10.51,15.73,4.46,4.43,9.73,7.92,15.76,10.48,6.06,2.53,12.59,3.8,19.64,3.8s13.62-1.3,19.7-3.89c6.09-2.56,11.36-6.12,15.85-10.6,4.46-4.49,7.98-9.73,10.54-15.79,2.05-4.76,3.28-9.79,3.68-15.12h-30.94Z"/>
    <path class="cls-1" d="M546.78,702.47v43.35h30.52v-34.13h27.93v34.13h30.52v-43.35h-88.96ZM605.23,650.62v33.59h-27.93v-33.59h-30.52v42.81h88.96v-42.81h-30.52Z"/>
    <path class="cls-1" d="M727.3,665.45c-1.05-2.44-2.41-4.52-4.04-6.24-2.71-2.83-6.12-4.94-10.24-6.42-4.13-1.45-9.37-2.17-15.73-2.17h-51.12v42.81h71.94c2.47-1.48,4.58-3.25,6.33-5.33,2.95-3.49,4.43-8.1,4.43-13.8v-.27c0-3.28-.51-6.15-1.57-8.59ZM698.86,681.5c0,4.34-3.22,6.54-9.64,6.54h-13.32v-13.35h13.17c6.54,0,9.79,2.17,9.79,6.54v.27ZM726.73,704.07c-.54-.54-1.14-1.08-1.75-1.6h-78.81v43.35h50.67c5.75,0,10.85-.66,15.24-1.96,4.4-1.33,8.07-3.16,11.03-5.51,2.95-2.35,5.18-5.15,6.66-8.38s2.23-6.72,2.23-10.54v-.27c0-6.51-1.75-11.54-5.27-15.09ZM701.21,714.82c0,2.08-.84,3.77-2.53,5.03-1.72,1.27-4.22,1.9-7.5,1.9h-15.27v-14.13h15.39c3.31,0,5.78.63,7.44,1.9,1.66,1.27,2.47,2.95,2.47,5.03v.27Z"/>
  </g>
  <g>
    <path class="cls-1" d="M407.11,298.37c3.09,1.45,5.03,2.28,6.89,3.24,63.69,32.75,127.33,65.55,191.12,98.17,4.49,2.3,5.92,4.7,5.81,9.04-.72,29.7-1.11,59.41-1.61,89.12-.03,1.85-.06,3.7-.11,6.48-2.84-1.32-4.77-2.13-6.6-3.07-63.7-32.73-127.36-65.52-191.15-98.12-4.66-2.38-6.17-4.97-6.06-9.5.73-29.51,1.11-59.03,1.6-88.55l.11-6.81Z"/>
    <path class="cls-1" d="M405.57,428.5c61.86,31.8,122.98,63.23,184.73,94.98,8.38,4.31,8.24,14.74-.28,18.77l-15.69,7.42c-21.2,10.03-42.45,19.97-63.56,30.14-3.89,1.87-6.8,2.17-10.89.03-30.49-15.91-61.2-31.53-91.69-47.44-2.21-1.15-4.7-3.91-4.68-5.9.24-31.63.86-63.25,1.41-94.88.01-.73.29-1.45.65-3.13Z"/>
    <path class="cls-1" d="M523.76,324.19c24.57-11.62,48.74-23.05,73.2-34.61,6.79-3.21,15.15,1.08,15.04,7.72l-1.2,71.67c-.11,6.64-8.6,10.65-15.28,7.22-23.95-12.31-47.76-24.56-72.01-37.02-6.68-3.43-6.54-11.76.25-14.97Z"/>
  </g>
</svg>