<?xml version="1.0" encoding="UTF-8"?>
<svg id="Layer_1" data-name="Layer 1" xmlns="http://www.w3.org/2000/svg" viewBox="0 0 1000 1000">
  <defs>
    <style>
      .cls-1 {
        fill: #fff;
        stroke-width: 0px;
      }
    </style>
  </defs>
  <path class="cls-1" d="M386.19,345.21c3.57,1.67,5.81,2.64,7.96,3.74,73.61,37.85,147.17,75.77,220.89,113.46,5.19,2.65,6.84,5.43,6.72,10.45-.84,34.33-1.29,68.67-1.86,103l-.13,7.48c-3.29-1.52-5.51-2.46-7.63-3.55-73.62-37.83-147.2-75.72-220.93-113.4-5.39-2.76-7.14-5.75-7.01-10.98.84-34.11,1.28-68.23,1.85-102.34l.13-7.87Z"/>
  <path class="cls-1" d="M384.41,495.62c71.49,36.76,142.14,73.09,213.51,109.78,9.68,4.98,9.52,17.04-.32,21.69l-18.13,8.58c-24.5,11.59-49.07,23.08-73.46,34.83-4.5,2.17-7.85,2.51-12.58.04-35.24-18.39-70.73-36.44-105.98-54.83-2.55-1.33-5.43-4.52-5.41-6.82.27-36.56.99-73.11,1.63-109.66.01-.84.34-1.67.75-3.62Z"/>
  <path class="cls-1" d="M521.02,375.06c28.4-13.43,56.33-26.64,84.6-40.01,7.84-3.71,17.51,1.24,17.38,8.92l-1.39,82.83c-.13,7.68-9.94,12.31-17.66,8.34-27.68-14.23-55.2-28.38-83.22-42.79-7.72-3.97-7.56-13.59.28-17.3Z"/>
</svg>