<svg width="24" height="24" viewBox="0 0 24 24" fill="none" xmlns="http://www.w3.org/2000/svg">
<g clip-path="url(#clip0_3066_13060)">
<path d="M5.67172 22.6299H0.81172V8.69988H5.67172V22.6299ZM15.7617 13.2399C15.1942 13.2399 14.6498 13.4653 14.2485 13.8667C13.8472 14.268 13.6217 14.8123 13.6217 15.3799V22.6299H8.51172V8.69988H13.6217V10.2899C14.8194 9.27594 16.3326 8.71027 17.9017 8.68988C21.0717 8.68988 23.2717 11.0399 23.2717 15.4999V22.6299H17.9017V15.3799C17.903 15.098 17.8487 14.8187 17.7417 14.5579C17.6347 14.2971 17.4773 14.06 17.2785 13.8602C17.0796 13.6604 16.8433 13.5019 16.583 13.3937C16.3227 13.2856 16.0436 13.2299 15.7617 13.2299V13.2399ZM5.76172 3.87988C5.76172 4.37434 5.6151 4.85769 5.34039 5.26881C5.06569 5.67993 4.67524 6.00036 4.21843 6.18958C3.76161 6.3788 3.25895 6.42831 2.77399 6.33185C2.28904 6.23538 1.84358 5.99728 1.49395 5.64765C1.14432 5.29802 0.90622 4.85256 0.809757 4.36761C0.713294 3.88266 0.762802 3.37999 0.952021 2.92317C1.14124 2.46636 1.46167 2.07591 1.87279 1.80121C2.28392 1.52651 2.76727 1.37988 3.26172 1.37988C3.92129 1.38516 4.55205 1.65088 5.01657 2.11915C5.4811 2.58742 5.74174 3.22029 5.74172 3.87988H5.76172Z" stroke="black" stroke-linecap="round" stroke-linejoin="round"/>
</g>
<defs>
<clipPath id="clip0_3066_13060">
<rect width="24" height="24" fill="white"/>
</clipPath>
</defs>
</svg>
